HIERARCHY
ROOT Hips
{
	OFFSET 0.000000 100.481300 0.000000
	CHANNELS 6 Xposition Yposition Zposition Xrotation Yrotation Zrotation
	JOINT Spine
	{
		OFFSET -0.279200 12.230698 -2.892100
		CHANNELS 3 Xrotation Yrotation Zrotation
		JOINT Spine1
		{
			OFFSET -0.325700 14.269203 -3.374200
			CHANNELS 3 Xrotation Yrotation Zrotation
			JOINT Spine2
			{
				OFFSET -0.372300 16.307602 -0.352600
				CHANNELS 3 Xrotation Yrotation Zrotation
				JOINT Neck
				{
					OFFSET -0.418800 17.814194 8.416900
					CHANNELS 3 Xrotation Yrotation Zrotation
					JOINT Head
					{
						OFFSET 0.000000 7.031097 3.806800
						CHANNELS 3 Xrotation Yrotation Zrotation
						JOINT HeadTop_End
						{
							OFFSET 0.000000 24.646606 12.978600
							CHANNELS 3 Xrotation Yrotation Zrotation
							End Site
							{
								OFFSET 0.000000 27.854965 0.000000
							}
						}
					}
				}
				JOINT LeftShoulder
				{
					OFFSET 16.952999 14.495407 -7.737500
					CHANNELS 3 Xrotation Yrotation Zrotation
					JOINT LeftArm
					{
						OFFSET 9.308998 -2.777710 0.208600
						CHANNELS 3 Xrotation Yrotation Zrotation
						JOINT LeftForeArm
						{
							OFFSET 29.972298 0.000000 0.000000
							CHANNELS 3 Xrotation Yrotation Zrotation
							JOINT LeftHand
							{
								OFFSET 26.026505 0.000000 0.000000
								CHANNELS 3 Xrotation Yrotation Zrotation
								JOINT LeftHandThumb1
								{
									OFFSET 12.240501 -7.147949 9.207150
									CHANNELS 3 Xrotation Yrotation Zrotation
									JOINT LeftHandThumb2
									{
										OFFSET 4.138618 -2.389435 2.389433
										CHANNELS 3 Xrotation Yrotation Zrotation
										JOINT LeftHandThumb3
										{
											OFFSET 2.726913 -1.574387 1.574386
											CHANNELS 3 Xrotation Yrotation Zrotation
											JOINT LeftHandThumb4
											{
												OFFSET 3.941010 -2.275345 2.275342
												CHANNELS 3 Xrotation Yrotation Zrotation
												End Site
												{
													OFFSET -0.005798 5.087799 0.009903
												}
											}
										}
									}
								}
								JOINT LeftHandIndex1
								{
									OFFSET 24.424698 -1.985611 5.953459
									CHANNELS 3 Xrotation Yrotation Zrotation
									JOINT LeftHandIndex2
									{
										OFFSET 6.426697 0.000000 0.000000
										CHANNELS 3 Xrotation Yrotation Zrotation
										JOINT LeftHandIndex3
										{
											OFFSET 5.337898 0.000000 0.000000
											CHANNELS 3 Xrotation Yrotation Zrotation
											JOINT LeftHandIndex4
											{
												OFFSET 4.409401 0.000000 0.000000
												CHANNELS 3 Xrotation Yrotation Zrotation
												End Site
												{
													OFFSET 0.000000 4.409363 0.014373
												}
											}
										}
									}
								}
								JOINT LeftHandMiddle1
								{
									OFFSET 23.810104 0.000000 0.000000
									CHANNELS 3 Xrotation Yrotation Zrotation
									JOINT LeftHandMiddle2
									{
										OFFSET 7.176498 0.000000 0.000000
										CHANNELS 3 Xrotation Yrotation Zrotation
										JOINT LeftHandMiddle3
										{
											OFFSET 6.774902 0.000000 0.000000
											CHANNELS 3 Xrotation Yrotation Zrotation
											JOINT LeftHandMiddle4
											{
												OFFSET 5.403328 0.000000 0.000000
												CHANNELS 3 Xrotation Yrotation Zrotation
												End Site
												{
													OFFSET -0.027702 5.403244 0.017414
												}
											}
										}
									}
								}
								JOINT LeftHandRing1
								{
									OFFSET 22.908401 -0.839279 -6.020567
									CHANNELS 3 Xrotation Yrotation Zrotation
									JOINT LeftHandRing2
									{
										OFFSET 6.337502 0.000000 0.000000
										CHANNELS 3 Xrotation Yrotation Zrotation
										JOINT LeftHandRing3
										{
											OFFSET 5.779297 0.000000 0.000000
											CHANNELS 3 Xrotation Yrotation Zrotation
											JOINT LeftHandRing4
											{
												OFFSET 4.965698 0.000000 0.000000
												CHANNELS 3 Xrotation Yrotation Zrotation
												End Site
												{
													OFFSET 0.000000 4.965668 0.016186
												}
											}
										}
									}
								}
								JOINT LeftHandPinky1
								{
									OFFSET 20.037003 -1.530319 -10.950146
									CHANNELS 3 Xrotation Yrotation Zrotation
									JOINT LeftHandPinky2
									{
										OFFSET 5.254700 0.000000 0.000000
										CHANNELS 3 Xrotation Yrotation Zrotation
										JOINT LeftHandPinky3
										{
											OFFSET 4.810204 0.000000 0.000000
											CHANNELS 3 Xrotation Yrotation Zrotation
											JOINT LeftHandPinky4
											{
												OFFSET 3.647202 0.000000 0.000000
												CHANNELS 3 Xrotation Yrotation Zrotation
												End Site
												{
													OFFSET 0.000000 3.647186 0.011889
												}
											}
										}
									}
								}
							}
						}
					}
				}
				JOINT RightShoulder
				{
					OFFSET -15.141001 14.495407 -7.737500
					CHANNELS 3 Xrotation Yrotation Zrotation
					JOINT RightArm
					{
						OFFSET -9.308998 -2.777710 0.208500
						CHANNELS 3 Xrotation Yrotation Zrotation
						JOINT RightForeArm
						{
							OFFSET -29.972300 0.000000 0.000000
							CHANNELS 3 Xrotation Yrotation Zrotation
							JOINT RightHand
							{
								OFFSET -26.026505 0.000000 0.000000
								CHANNELS 3 Xrotation Yrotation Zrotation
								JOINT RightHandThumb1
								{
									OFFSET -12.240601 -7.148026 9.207092
									CHANNELS 3 Xrotation Yrotation Zrotation
									JOINT RightHandThumb2
									{
										OFFSET -4.138618 -2.389435 2.389433
										CHANNELS 3 Xrotation Yrotation Zrotation
										JOINT RightHandThumb3
										{
											OFFSET -2.726974 -1.574417 1.574421
											CHANNELS 3 Xrotation Yrotation Zrotation
											JOINT RightHandThumb4
											{
												OFFSET -3.941010 -2.275345 2.275343
												CHANNELS 3 Xrotation Yrotation Zrotation
												End Site
												{
													OFFSET 0.005814 5.087799 0.009927
												}
											}
										}
									}
								}
								JOINT RightHandIndex1
								{
									OFFSET -24.424698 -1.985657 5.953444
									CHANNELS 3 Xrotation Yrotation Zrotation
									JOINT RightHandIndex2
									{
										OFFSET -6.426697 0.000000 0.000000
										CHANNELS 3 Xrotation Yrotation Zrotation
										JOINT RightHandIndex3
										{
											OFFSET -5.337898 0.000000 0.000000
											CHANNELS 3 Xrotation Yrotation Zrotation
											JOINT RightHandIndex4
											{
												OFFSET -4.409401 0.000000 0.000000
												CHANNELS 3 Xrotation Yrotation Zrotation
												End Site
												{
													OFFSET 0.000000 4.409363 0.014408
												}
											}
										}
									}
								}
								JOINT RightHandMiddle1
								{
									OFFSET -23.810097 0.000000 0.000000
									CHANNELS 3 Xrotation Yrotation Zrotation
									JOINT RightHandMiddle2
									{
										OFFSET -7.176498 0.000000 0.000000
										CHANNELS 3 Xrotation Yrotation Zrotation
										JOINT RightHandMiddle3
										{
											OFFSET -6.774902 0.000000 0.000000
											CHANNELS 3 Xrotation Yrotation Zrotation
											JOINT RightHandMiddle4
											{
												OFFSET -5.403328 0.000000 0.000000
												CHANNELS 3 Xrotation Yrotation Zrotation
												End Site
												{
													OFFSET 0.027702 5.403244 0.017457
												}
											}
										}
									}
								}
								JOINT RightHandRing1
								{
									OFFSET -22.908302 -0.839325 -6.020576
									CHANNELS 3 Xrotation Yrotation Zrotation
									JOINT RightHandRing2
									{
										OFFSET -6.337502 0.000000 0.000000
										CHANNELS 3 Xrotation Yrotation Zrotation
										JOINT RightHandRing3
										{
											OFFSET -5.779297 0.000000 0.000000
											CHANNELS 3 Xrotation Yrotation Zrotation
											JOINT RightHandRing4
											{
												OFFSET -4.965698 0.000000 0.000000
												CHANNELS 3 Xrotation Yrotation Zrotation
												End Site
												{
													OFFSET 0.000000 4.965668 0.016226
												}
											}
										}
									}
								}
								JOINT RightHandPinky1
								{
									OFFSET -20.037003 -1.530334 -10.950259
									CHANNELS 3 Xrotation Yrotation Zrotation
									JOINT RightHandPinky2
									{
										OFFSET -5.254700 0.000000 0.000000
										CHANNELS 3 Xrotation Yrotation Zrotation
										JOINT RightHandPinky3
										{
											OFFSET -4.810204 0.000000 0.000000
											CHANNELS 3 Xrotation Yrotation Zrotation
											JOINT RightHandPinky4
											{
												OFFSET -3.647202 0.000000 0.000000
												CHANNELS 3 Xrotation Yrotation Zrotation
												End Site
												{
													OFFSET 0.000000 3.647186 0.011917
												}
											}
										}
									}
								}
							}
						}
					}
				}
			}
		}
	}
	JOINT LeftUpLeg
	{
		OFFSET 15.427100 -6.655098 0.678600
		CHANNELS 3 Xrotation Yrotation Zrotation
		JOINT LeftLeg
		{
			OFFSET 4.081073 -39.591068 13.024000
			CHANNELS 3 Xrotation Yrotation Zrotation
			JOINT LeftFoot
			{
				OFFSET -4.081074 -37.707932 -15.979700
				CHANNELS 3 Xrotation Yrotation Zrotation
				JOINT LeftToeBase
				{
					OFFSET 5.346399 -15.068900 20.645000
					CHANNELS 3 Xrotation Yrotation Zrotation
					JOINT LeftToe_End
					{
						OFFSET 2.754700 0.931300 11.300900
						CHANNELS 3 Xrotation Yrotation Zrotation
						End Site
						{
							OFFSET 0.000000 11.669021 0.000000
						}
					}
				}
			}
		}
	}
	JOINT RightUpLeg
	{
		OFFSET -15.569500 -6.655098 0.678600
		CHANNELS 3 Xrotation Yrotation Zrotation
		JOINT RightLeg
		{
			OFFSET -4.081825 -39.591045 13.023800
			CHANNELS 3 Xrotation Yrotation Zrotation
			JOINT RightFoot
			{
				OFFSET 4.081824 -37.707954 -15.979600
				CHANNELS 3 Xrotation Yrotation Zrotation
				JOINT RightToeBase
				{
					OFFSET -5.346400 -15.068900 20.645000
					CHANNELS 3 Xrotation Yrotation Zrotation
					JOINT RightToe_End
					{
						OFFSET -2.754700 0.931300 11.300900
						CHANNELS 3 Xrotation Yrotation Zrotation
						End Site
						{
							OFFSET 0.000000 11.669021 0.000000
						}
					}
				}
			}
		}
	}
}
MOTION
Frames: 6
Frame Time: 0.033333
147.170181 105.383842 9.660599 -10.161634 -5.630742 3.694661 7.333580 -1.249543 -0.040036 14.648072 -1.208963 -0.951942 14.648078 -1.208967 -0.951939 5.767791 4.465744 -4.763779 -7.100082 2.577718 0.898680 -0.000000 0.000000 0.000000 -0.320444 -9.047671 25.219109 -52.722278 -15.834890 5.712550 149.576539 -144.868626 179.910680 19.934013 -8.108843 33.897327 -11.360626 -10.021558 28.379680 19.609671 23.741394 -10.339249 0.000008 0.000007 -0.000013 -0.000000 -0.000000 -0.000004 -7.853653 -3.447653 -67.081917 -4.892282 2.722166 -36.308507 -0.000001 0.000000 -0.000000 -0.000000 -0.000000 0.000000 -10.128872 -3.870697 -67.764629 -1.770508 1.713229 -28.150068 -0.000002 -0.000001 -0.000001 0.000001 0.000000 -0.000001 -15.169531 7.292902 -70.187878 7.766197 -0.421240 -31.520561 -0.000000 -0.000007 0.000001 0.000000 0.000000 0.000001 -16.464304 5.437047 -74.863832 8.342206 -0.186081 -18.883171 -0.000001 0.000001 -0.000001 -0.000000 -0.000000 0.000000 -2.422019 18.277311 -29.763495 -76.134234 36.690581 20.549019 -199.460198 132.312539 169.881585 28.878176 -6.359018 -24.273097 15.332858 1.500954 -10.492393 -10.397447 -3.067612 -10.225367 0.000003 0.000008 -0.000001 0.000000 0.000000 -0.000003 0.920025 3.496701 64.456331 1.727678 9.561929 38.867943 0.000000 -0.000000 0.000003 -0.000001 0.000000 0.000001 -6.652682 -3.924563 64.488618 9.406073 5.988954 38.255254 -0.000003 -0.000013 0.000001 -0.000001 0.000001 0.000002 -5.547217 1.390694 64.786100 0.233997 -1.791446 39.151833 0.000003 -0.000000 -0.000002 0.000000 -0.000001 -0.000001 -17.807468 -16.571519 61.043429 25.329801 3.861698 27.749609 -0.000000 0.000008 -0.000000 0.000001 0.000001 -0.000000 -95.861323 15.301295 29.229187 109.775941 -21.607179 -0.201183 -32.841056 -2.535830 8.894744 -38.342005 -3.080617 -1.249162 0.000000 0.000000 -0.000000 -132.198421 -16.771999 -17.123308 118.093151 1.735821 -9.064747 -14.997536 -1.197886 2.669030 -33.346869 2.536797 8.417773 0.000000 0.000003 0.000000 
149.193848 102.691162 12.036814 -11.081681 -6.562256 3.648354 7.258583 -0.746806 0.566592 14.496918 -0.775087 -0.680357 14.496919 -0.775088 -0.680359 8.352232 1.645533 -6.796215 -8.221731 1.415868 -0.408610 0.000001 0.000000 -0.000000 1.269359 -12.833418 26.098474 -53.206798 -14.214594 9.641059 150.713192 -144.804122 180.977268 18.637226 -6.245191 29.890725 -11.360637 -10.013625 28.406748 19.626260 23.761262 -10.343155 0.000008 0.000008 -0.000010 0.000001 0.000001 -0.000002 -7.844434 -3.443800 -67.096930 -4.889550 2.725951 -36.321020 -0.000000 0.000000 0.000000 0.000000 -0.000000 -0.000002 -10.130866 -3.870951 -67.779792 -1.771098 1.712217 -28.161264 -0.000001 -0.000001 -0.000001 -0.000000 -0.000001 0.000000 -15.182045 7.296246 -70.208559 7.766226 -0.421189 -31.519571 -0.000002 -0.000006 0.000001 -0.000000 -0.000000 0.000000 -16.491324 5.435294 -74.877083 8.342206 -0.186080 -18.883175 0.000000 0.000001 -0.000001 -0.000000 0.000000 0.000000 -2.086961 18.844478 -31.837195 -64.830469 36.017493 5.364658 -203.189768 139.821130 175.513103 19.000567 -3.407011 -27.234514 15.331080 1.500914 -10.495769 -10.399826 -3.067570 -10.229969 0.000003 0.000008 -0.000000 -0.000000 0.000000 0.000000 0.919185 3.497115 64.469876 1.727350 9.562382 38.873315 0.000001 0.000000 0.000001 -0.000001 -0.000001 -0.000000 -6.653421 -3.924318 64.498207 9.405819 5.989347 38.260633 -0.000003 -0.000011 0.000003 -0.000000 -0.000001 -0.000001 -5.550236 1.392287 64.791004 0.233985 -1.791448 39.152021 0.000002 -0.000000 -0.000002 0.000000 -0.000001 -0.000001 -17.811457 -16.569450 61.044502 25.329702 3.862035 27.754954 0.000000 0.000007 0.000000 0.000001 -0.000000 0.000000 -100.669933 19.513815 28.267829 117.086463 -17.897975 2.583353 -33.003317 -4.375986 12.686004 -40.433835 -1.171255 0.274457 -0.000000 -0.000001 -0.000000 -141.925689 -19.246479 -12.535273 122.117280 -4.439985 -15.189215 -11.035585 -4.826952 8.860594 -30.876126 3.908729 8.188289 -0.000000 0.000001 -0.000000 
150.960785 101.056793 13.779167 -11.448498 -8.163773 3.252397 7.459624 -0.578030 0.857911 14.898400 -0.768672 -0.548997 14.898391 -0.768671 -0.548998 8.056681 0.882334 -8.259960 -8.274268 1.358133 -1.265773 0.000002 0.000000 0.000000 2.203851 -12.573988 27.151897 -53.486190 -9.620869 12.874845 150.073108 -139.704689 180.640390 15.789960 -2.265331 26.462064 -11.360110 -10.013465 28.403559 19.624793 23.759720 -10.342493 0.000007 0.000006 -0.000010 -0.000000 -0.000003 -0.000001 -7.845160 -3.444147 -67.094348 -4.889733 2.725627 -36.319227 -0.000000 0.000000 -0.000000 0.000000 -0.000000 -0.000001 -10.130297 -3.870906 -67.777497 -1.771048 1.712278 -28.160317 0.000001 -0.000001 -0.000001 0.000001 -0.000000 -0.000001 -15.180278 7.295839 -70.206128 7.766212 -0.421211 -31.519875 -0.000000 -0.000008 0.000001 0.000000 -0.000000 -0.000000 -16.488179 5.435682 -74.875703 8.342206 -0.186079 -18.883173 0.000000 0.000001 -0.000000 -0.000001 -0.000000 0.000000 -1.680516 19.493307 -34.350131 -58.689500 32.412471 -3.200029 -206.049390 141.917206 177.286794 12.693709 -1.283591 -27.029821 15.333609 1.500900 -10.491475 -10.396781 -3.067659 -10.223924 0.000002 0.000008 -0.000002 0.000000 0.000000 0.000000 0.919785 3.496378 64.452199 1.727764 9.561625 38.866293 0.000002 0.000001 0.000001 -0.000001 -0.000002 -0.000000 -6.652405 -3.924266 64.485708 9.405976 5.988762 38.253649 -0.000003 -0.000013 0.000003 0.000000 -0.000002 0.000000 -5.546332 1.390150 64.784816 0.233995 -1.791449 39.151778 0.000002 -0.000000 -0.000002 -0.000000 0.000000 0.000001 -17.806378 -16.572337 61.043340 25.329401 3.861622 27.748081 0.000000 0.000009 -0.000000 0.000000 -0.000001 -0.000000 -105.240292 25.326041 26.946838 122.766804 -11.517922 6.310315 -33.588237 -5.895184 15.521560 -42.704190 0.889852 1.894515 -0.000003 -0.000001 -0.000000 -145.532330 -21.075679 -9.407599 123.682500 -8.815841 -18.519291 -11.628888 -7.510934 13.275752 -27.169337 6.104708 9.011242 -0.000000 -0.000001 0.000001 
152.271011 100.264549 15.141813 -12.294403 -9.664203 2.777613 7.748639 -0.714914 0.978720 15.470858 -0.933661 -0.436455 15.470855 -0.933657 -0.436455 7.678251 0.612294 -9.481171 -8.358145 1.453153 -1.498200 -0.000001 -0.000000 -0.000000 2.429837 -9.988406 28.180076 -52.458418 -4.688050 14.478345 149.766869 -135.044205 179.398730 10.987515 1.289587 26.027308 -11.360063 -10.015783 28.395484 19.619882 23.753854 -10.341340 0.000008 0.000009 -0.000010 -0.000000 0.000000 0.000000 -7.847860 -3.445275 -67.089799 -4.890534 2.724501 -36.315460 -0.000000 0.000000 -0.000000 0.000000 0.000000 -0.000003 -10.129666 -3.870818 -67.772907 -1.770865 1.712581 -28.156994 -0.000001 -0.000001 -0.000000 0.000000 0.000000 0.000001 -15.176499 7.294847 -70.199947 7.766208 -0.421231 -31.520176 -0.000001 -0.000007 0.000000 -0.000000 0.000000 -0.000001 -16.480149 5.436208 -74.871762 8.342208 -0.186080 -18.883175 -0.000001 0.000000 -0.000002 -0.000000 -0.000001 -0.000000 -1.174797 19.961839 -36.658824 -57.336843 29.524387 -5.866808 -208.391134 142.546581 178.115651 10.320648 0.335548 -26.188480 15.334273 1.500906 -10.490188 -10.395875 -3.067662 -10.222164 0.000002 0.000008 -0.000003 0.000000 -0.000000 0.000001 0.920073 3.496221 64.447029 1.727880 9.561439 38.864234 0.000002 0.000000 0.000003 0.000000 -0.000000 0.000000 -6.652130 -3.924326 64.482026 9.406064 5.988605 38.251607 -0.000003 -0.000014 0.000002 -0.000000 -0.000000 0.000001 -5.545201 1.389572 64.782978 0.234007 -1.791476 39.151713 0.000003 0.000001 -0.000002 0.000001 -0.000000 -0.000001 -17.804871 -16.573121 61.042972 25.329401 3.861495 27.746042 0.000000 0.000008 0.000000 0.000000 0.000001 -0.000000 -109.045582 32.502036 26.185233 126.815385 -4.225980 10.427845 -33.840510 -6.745333 16.968690 -45.279137 2.030116 4.086799 -0.000001 -0.000001 0.000000 -146.978322 -22.607532 -7.408158 124.318800 -13.123741 -20.932035 -11.618488 -8.967998 15.866956 -25.088606 8.374159 10.908923 0.000001 0.000001 -0.000000 
152.990158 100.120331 16.033585 -13.650078 -10.603955 2.115017 8.108596 -0.955834 1.107712 16.183855 -1.137774 -0.208870 16.183853 -1.137771 -0.208870 6.909421 0.611916 -10.329993 -8.273027 1.599489 -1.468032 -0.000002 0.000000 -0.000000 1.949034 -6.716000 29.111059 -50.918596 -1.102213 13.867518 149.694087 -131.862307 178.307757 6.707097 3.491909 27.310356 -11.360209 -10.015976 28.395868 19.619978 23.753902 -10.341458 0.000008 0.000007 -0.000011 -0.000000 -0.000002 -0.000002 -7.847843 -3.445254 -67.090243 -4.890543 2.724510 -36.315733 0.000000 0.000000 0.000002 -0.000000 0.000000 0.000001 -10.129792 -3.870834 -67.773283 -1.770872 1.712585 -28.157045 -0.000001 -0.000000 0.000001 0.000001 -0.000000 -0.000001 -15.176774 7.294886 -70.200247 7.766213 -0.421205 -31.520121 -0.000000 -0.000007 0.000002 0.000000 -0.000000 0.000001 -16.480487 5.436138 -74.871892 8.342206 -0.186080 -18.883173 -0.000000 0.000001 -0.000001 -0.000000 -0.000001 -0.000000 -0.468411 20.083896 -37.836461 -57.161204 28.826800 -7.523015 -209.822045 143.574975 178.844214 9.148807 1.552609 -26.012195 15.333592 1.500921 -10.491364 -10.396689 -3.067641 -10.223803 0.000002 0.000008 -0.000002 0.000000 -0.000000 -0.000001 0.919909 3.496420 64.451851 1.727783 9.561629 38.866157 0.000000 0.000001 0.000003 0.000000 -0.000001 0.000001 -6.652423 -3.924351 64.485455 9.406028 5.988728 38.253506 -0.000003 -0.000013 0.000000 -0.000001 0.000000 0.000000 -5.546260 1.390133 64.784645 0.234004 -1.791465 39.151782 0.000002 -0.000001 -0.000003 0.000000 -0.000002 -0.000001 -17.806269 -16.572344 61.043286 25.329478 3.861612 27.747920 0.000000 0.000006 -0.000000 -0.000001 -0.000001 0.000000 -111.779024 38.507684 26.181520 129.109850 2.075231 13.886934 -33.193401 -7.038387 17.619661 -47.823267 2.644257 5.811413 -0.000003 -0.000001 0.000000 -147.346373 -24.078259 -5.272497 124.547803 -16.920532 -23.146567 -9.043427 -9.451464 18.018529 -25.914562 9.575216 12.746123 -0.000000 -0.000000 0.000001 
153.203110 100.271744 16.436913 -14.716071 -10.845471 1.365601 8.453279 -1.174547 1.155515 16.867656 -1.344444 -0.065088 16.867659 -1.344447 -0.065084 4.247261 1.370085 -10.523155 -7.287062 1.783651 -0.041928 0.000001 0.000000 -0.000000 1.005818 -3.617799 29.996886 -50.494554 -0.420493 11.539252 149.247775 -129.856240 178.257760 5.778580 4.851221 27.778022 -11.360224 -10.015322 28.398224 19.621385 23.755576 -10.341799 0.000007 0.000006 -0.000011 0.000000 -0.000002 -0.000000 -7.847056 -3.444921 -67.091582 -4.890310 2.724826 -36.316826 -0.000000 0.000001 0.000002 0.000000 0.000000 -0.000000 -10.129988 -3.870856 -67.774622 -1.770918 1.712515 -28.158013 -0.000000 -0.000000 0.000000 0.000001 -0.000000 -0.000001 -15.177876 7.295180 -70.202050 7.766209 -0.421208 -31.520012 -0.000001 -0.000007 0.000001 -0.000000 -0.000000 -0.000001 -16.482838 5.435982 -74.873053 8.342206 -0.186080 -18.883173 0.000000 -0.000000 -0.000002 -0.000000 0.000000 -0.000000 0.592535 19.989353 -37.918847 -56.050172 28.022723 -10.506200 -210.863950 144.042078 179.766754 7.008306 2.133773 -26.741019 15.333356 1.500906 -10.491804 -10.397003 -3.067638 -10.224444 0.000003 0.000009 -0.000001 0.000001 -0.000000 -0.000002 0.919836 3.496464 64.453647 1.727734 9.561727 38.866864 -0.000000 -0.000003 0.000000 -0.000001 -0.000001 -0.000001 -6.652522 -3.924342 64.486739 9.406000 5.988806 38.254220 -0.000005 -0.000013 0.000003 -0.000001 -0.000001 -0.000000 -5.546658 1.390342 64.785307 0.234003 -1.791467 39.151802 0.000002 0.000001 -0.000004 0.000000 0.000000 -0.000002 -17.806771 -16.572061 61.043429 25.329500 3.861654 27.748615 -0.000000 0.000010 -0.000000 -0.000000 0.000002 -0.000000 -112.546402 40.390474 26.290057 129.955072 4.651028 15.224731 -32.247403 -7.003560 17.747657 -49.381520 2.773513 6.447632 -0.000001 -0.000001 -0.000000 -146.912547 -24.282412 -4.237109 124.644027 -18.630101 -23.959573 -6.504893 -9.184681 19.110197 -27.777257 9.798857 14.082401 -0.000002 0.000001 -0.000000 
